<svg id="visual" viewBox="0 0 960 300" width="960" height="300" xmlns="http://www.w3.org/2000/svg" xmlns:xlink="http://www.w3.org/1999/xlink" version="1.1"><rect x="0" y="0" width="960" height="300" fill="#091533"></rect><path d="M0 121L137 121L137 97L274 97L274 129L411 129L411 124L549 124L549 118L686 118L686 105L823 105L823 110L960 110L960 110L960 301L960 301L823 301L823 301L686 301L686 301L549 301L549 301L411 301L411 301L274 301L274 301L137 301L137 301L0 301Z" fill="#8f005f"></path><path d="M0 149L137 149L137 148L274 148L274 115L411 115L411 147L549 147L549 142L686 142L686 123L823 123L823 124L960 124L960 154L960 301L960 301L823 301L823 301L686 301L686 301L549 301L549 301L411 301L411 301L274 301L274 301L137 301L137 301L0 301Z" fill="#94006d"></path><path d="M0 167L137 167L137 167L274 167L274 165L411 165L411 160L549 160L549 145L686 145L686 135L823 135L823 172L960 172L960 150L960 301L960 301L823 301L823 301L686 301L686 301L549 301L549 301L411 301L411 301L274 301L274 301L137 301L137 301L0 301Z" fill="#97007d"></path><path d="M0 154L137 154L137 190L274 190L274 168L411 168L411 159L549 159L549 178L686 178L686 189L823 189L823 166L960 166L960 173L960 301L960 301L823 301L823 301L686 301L686 301L549 301L549 301L411 301L411 301L274 301L274 301L137 301L137 301L0 301Z" fill="#97008e"></path><path d="M0 199L137 199L137 212L274 212L274 196L411 196L411 179L549 179L549 197L686 197L686 179L823 179L823 190L960 190L960 202L960 301L960 301L823 301L823 301L686 301L686 301L549 301L549 301L411 301L411 301L274 301L274 301L137 301L137 301L0 301Z" fill="#9500a0"></path><path d="M0 218L137 218L137 220L274 220L274 215L411 215L411 228L549 228L549 221L686 221L686 217L823 217L823 205L960 205L960 197L960 301L960 301L823 301L823 301L686 301L686 301L549 301L549 301L411 301L411 301L274 301L274 301L137 301L137 301L0 301Z" fill="#8e00b4"></path><path d="M0 237L137 237L137 223L274 223L274 219L411 219L411 233L549 233L549 233L686 233L686 249L823 249L823 219L960 219L960 222L960 301L960 301L823 301L823 301L686 301L686 301L549 301L549 301L411 301L411 301L274 301L274 301L137 301L137 301L0 301Z" fill="#7f00cb"></path><path d="M0 253L137 253L137 265L274 265L274 267L411 267L411 253L549 253L549 246L686 246L686 262L823 262L823 243L960 243L960 252L960 301L960 301L823 301L823 301L686 301L686 301L549 301L549 301L411 301L411 301L274 301L274 301L137 301L137 301L0 301Z" fill="#6300e4"></path><path d="M0 263L137 263L137 276L274 276L274 278L411 278L411 282L549 282L549 280L686 280L686 274L823 274L823 266L960 266L960 263L960 301L960 301L823 301L823 301L686 301L686 301L549 301L549 301L411 301L411 301L274 301L274 301L137 301L137 301L0 301Z" fill="#0008ff"></path></svg>