<svg id="visual" viewBox="0 0 960 300" width="960" height="300" xmlns="http://www.w3.org/2000/svg" xmlns:xlink="http://www.w3.org/1999/xlink" version="1.1"><path d="M0 124L14.5 122.5C29 121 58 118 87.2 108C116.3 98 145.7 81 174.8 73C204 65 233 66 262 72.5C291 79 320 91 349 97.5C378 104 407 105 436.2 104.5C465.3 104 494.7 102 523.8 104.5C553 107 582 114 611 110.5C640 107 669 93 698 83C727 73 756 67 785.2 63C814.3 59 843.7 57 872.8 54.5C902 52 931 49 945.5 47.5L960 46L960 0L945.5 0C931 0 902 0 872.8 0C843.7 0 814.3 0 785.2 0C756 0 727 0 698 0C669 0 640 0 611 0C582 0 553 0 523.8 0C494.7 0 465.3 0 436.2 0C407 0 378 0 349 0C320 0 291 0 262 0C233 0 204 0 174.8 0C145.7 0 116.3 0 87.2 0C58 0 29 0 14.5 0L0 0Z" fill="#6198ff"></path><path d="M0 190L14.5 192.5C29 195 58 200 87.2 193.5C116.3 187 145.7 169 174.8 161C204 153 233 155 262 160.5C291 166 320 175 349 181.5C378 188 407 192 436.2 196.5C465.3 201 494.7 206 523.8 208C553 210 582 209 611 202.5C640 196 669 184 698 177.5C727 171 756 170 785.2 171C814.3 172 843.7 175 872.8 171C902 167 931 156 945.5 150.5L960 145L960 44L945.5 45.5C931 47 902 50 872.8 52.5C843.7 55 814.3 57 785.2 61C756 65 727 71 698 81C669 91 640 105 611 108.5C582 112 553 105 523.8 102.5C494.7 100 465.3 102 436.2 102.5C407 103 378 102 349 95.5C320 89 291 77 262 70.5C233 64 204 63 174.8 71C145.7 79 116.3 96 87.2 106C58 116 29 119 14.5 120.5L0 122Z" fill="#3c80ff"></path><path d="M0 226L14.5 226.5C29 227 58 228 87.2 223.5C116.3 219 145.7 209 174.8 201C204 193 233 187 262 192C291 197 320 213 349 222.5C378 232 407 235 436.2 236C465.3 237 494.7 236 523.8 234C553 232 582 229 611 225.5C640 222 669 218 698 216C727 214 756 214 785.2 215.5C814.3 217 843.7 220 872.8 216.5C902 213 931 203 945.5 198L960 193L960 143L945.5 148.5C931 154 902 165 872.8 169C843.7 173 814.3 170 785.2 169C756 168 727 169 698 175.5C669 182 640 194 611 200.5C582 207 553 208 523.8 206C494.7 204 465.3 199 436.2 194.5C407 190 378 186 349 179.5C320 173 291 164 262 158.5C233 153 204 151 174.8 159C145.7 167 116.3 185 87.2 191.5C58 198 29 193 14.5 190.5L0 188Z" fill="#0066ff"></path><path d="M0 268L14.5 267C29 266 58 264 87.2 261C116.3 258 145.7 254 174.8 254C204 254 233 258 262 259.5C291 261 320 260 349 263C378 266 407 273 436.2 273.5C465.3 274 494.7 268 523.8 265C553 262 582 262 611 262C640 262 669 262 698 262.5C727 263 756 264 785.2 263.5C814.3 263 843.7 261 872.8 257.5C902 254 931 249 945.5 246.5L960 244L960 191L945.5 196C931 201 902 211 872.8 214.5C843.7 218 814.3 215 785.2 213.5C756 212 727 212 698 214C669 216 640 220 611 223.5C582 227 553 230 523.8 232C494.7 234 465.3 235 436.2 234C407 233 378 230 349 220.5C320 211 291 195 262 190C233 185 204 191 174.8 199C145.7 207 116.3 217 87.2 221.5C58 226 29 225 14.5 224.5L0 224Z" fill="#0059dd"></path><path d="M0 301L14.5 301C29 301 58 301 87.2 301C116.3 301 145.7 301 174.8 301C204 301 233 301 262 301C291 301 320 301 349 301C378 301 407 301 436.2 301C465.3 301 494.7 301 523.8 301C553 301 582 301 611 301C640 301 669 301 698 301C727 301 756 301 785.2 301C814.3 301 843.7 301 872.8 301C902 301 931 301 945.5 301L960 301L960 242L945.5 244.5C931 247 902 252 872.8 255.5C843.7 259 814.3 261 785.2 261.5C756 262 727 261 698 260.5C669 260 640 260 611 260C582 260 553 260 523.8 263C494.7 266 465.3 272 436.2 271.5C407 271 378 264 349 261C320 258 291 259 262 257.5C233 256 204 252 174.8 252C145.7 252 116.3 256 87.2 259C58 262 29 264 14.5 265L0 266Z" fill="#004cbb"></path></svg>